<svg width="60" height="64" viewBox="0 0 60 64" fill="none" xmlns="http://www.w3.org/2000/svg">
<g clip-path="url(#clip0_5_16550)">
<path d="M60.0012 13.0312C55.5521 14.8959 51.7673 16.3511 47.8722 18.7318C47.7647 20.4982 47.7206 22.008 47.7123 23.3239C49.3897 22.1459 51.1512 21.0902 52.983 20.1651C51.2022 25.3196 51.3483 31.2277 51.4916 36.9883C51.646 43.2676 51.7259 46.6257 49.6282 51.2587C45.2755 60.8852 36.9975 63.2386 35.3242 64.003C49.9149 62.8563 56.1778 54.898 55.2461 35.6587C54.5983 22.412 56.561 18.2049 60.0012 13.0312Z" fill="#E6394A"/>
<path d="M44.8785 16.774C45.5153 10.1097 46.6703 8.41157 48.5255 4.15801C45.1983 5.79609 40.92 7.62529 36.8568 11.1663C34.8224 9.07226 30.6545 4.32455 30.0012 0C29.3506 4.32455 25.1799 9.07226 23.1483 11.1663C19.0823 7.6171 14.8041 5.79882 11.4796 4.15801C13.627 9.08591 14.8399 10.5875 15.394 20.3559C15.394 20.5607 15.4188 20.7436 15.427 20.9538C10.286 17.1316 5.68249 15.4171 0.00390625 13.0364C3.44413 18.2237 5.40683 22.4172 4.7673 35.6639C3.83006 54.8977 10.0958 62.8615 24.6864 64.0027C23.0132 63.2383 14.7351 60.8849 10.3825 51.2584C8.28471 46.6172 8.36466 43.2755 8.51903 36.988C8.66237 31.2274 8.79468 25.3193 7.02495 20.1648C10.1134 21.6991 12.9862 23.6266 15.5704 25.8981C15.5971 28.3178 15.4968 30.7373 15.2699 33.1467C13.8916 48.8641 17.9824 52.6999 24.9345 56.5494C29.5629 46.9639 29.1383 38.4786 24.2867 30.5093C23.7128 29.5739 23.087 28.6707 22.4123 27.8038C22.4409 29.9425 22.2934 32.08 21.9712 34.195C25.7973 41.9759 25.1468 50.4858 23.9752 53.8766C17.6075 49.0197 18.6302 40.1932 19.0134 33.4743C19.1429 31.14 19.3772 25.8736 19.1512 20.274C19.0167 17.5291 18.7203 14.7943 18.2636 12.0836C25.4666 17.2163 27.545 23.1298 30.0122 29.2344C32.3332 23.5011 34.3814 17.3337 41.747 12.0836C41.0854 15.7447 40.7849 20.274 40.7078 24.2819C38.7933 26.1521 37.1194 28.2492 35.7238 30.5257C30.8722 38.495 30.4477 46.9803 35.0733 56.5658C42.0282 52.7163 46.1162 48.8805 44.7407 33.163C44.2334 27.3506 44.4843 20.8637 44.8785 16.774ZM31.6165 17.1071C31.0928 17.8852 30.0315 19.6679 30.0012 19.7171C29.9736 19.6679 28.9647 17.9698 28.4685 17.2272C27.6422 15.9893 26.7264 14.8122 25.7284 13.7053C27.2862 11.9291 28.7141 10.0451 30.0012 8.06757C31.3932 10.0442 32.8294 12.1027 34.2463 13.7353C33.2926 14.7982 32.414 15.9247 31.6165 17.1071ZM36.0271 53.863C34.6295 49.8196 33.9541 38.4977 40.7436 29.8132C40.8015 31.2765 40.8676 32.0191 40.9917 33.4606C41.554 39.8437 42.3975 49.0061 36.0298 53.8521L36.0271 53.863Z" fill="#E6394A"/>
</g>
<defs>
<clipPath id="clip0_5_16550">
<rect width="60" height="64" fill="white"/>
</clipPath>
</defs>
</svg>
