<svg width="323" height="350" viewBox="0 0 323 350" fill="none" xmlns="http://www.w3.org/2000/svg">
<path d="M293.295 221.967C293.295 220.776 293.768 219.634 294.61 218.792C295.452 217.95 296.594 217.477 297.784 217.477C298.975 217.477 300.117 217.95 300.959 218.792C301.801 219.634 302.274 220.776 302.274 221.967V223.305L314.029 218.267V191.083L166.483 254.295V281.485L205.221 264.88V260.377C205.218 259.344 205.571 258.343 206.221 257.54C206.871 256.738 207.778 256.185 208.789 255.974C209.799 255.763 210.852 255.908 211.768 256.383C212.685 256.859 213.409 257.636 213.819 258.584L293.295 223.907V221.967Z" fill="#EBE2E3"/>
<path d="M314.029 128.046L166.483 191.277V244.547L314.029 181.315V128.046ZM205.221 197.58C204.333 197.58 203.465 197.317 202.727 196.823C201.989 196.33 201.414 195.629 201.074 194.809C200.734 193.988 200.645 193.086 200.818 192.215C200.991 191.344 201.419 190.544 202.047 189.916C202.675 189.288 203.475 188.861 204.346 188.688C205.216 188.514 206.119 188.603 206.939 188.943C207.76 189.283 208.461 189.858 208.954 190.596C209.447 191.335 209.711 192.203 209.711 193.091C209.711 194.281 209.238 195.423 208.396 196.265C207.554 197.107 206.412 197.58 205.221 197.58ZM240.32 178.586C239.432 178.586 238.564 178.322 237.825 177.829C237.087 177.336 236.512 176.635 236.172 175.814C235.832 174.994 235.743 174.091 235.917 173.22C236.09 172.35 236.517 171.55 237.145 170.922C237.773 170.294 238.573 169.866 239.444 169.693C240.315 169.52 241.217 169.609 242.038 169.949C242.858 170.288 243.559 170.864 244.052 171.602C244.546 172.34 244.809 173.208 244.809 174.096C244.809 175.287 244.336 176.429 243.494 177.271C242.652 178.113 241.51 178.586 240.32 178.586ZM249.258 204.913C248.37 204.913 247.502 204.649 246.764 204.156C246.026 203.663 245.45 202.962 245.111 202.141C244.771 201.321 244.682 200.418 244.855 199.548C245.028 198.677 245.456 197.877 246.084 197.249C246.712 196.621 247.511 196.194 248.382 196.02C249.253 195.847 250.156 195.936 250.976 196.276C251.796 196.616 252.498 197.191 252.991 197.929C253.484 198.668 253.747 199.535 253.747 200.423C253.747 201.614 253.274 202.756 252.433 203.598C251.591 204.44 250.449 204.913 249.258 204.913ZM289.709 169.614C288.821 169.615 287.952 169.353 287.213 168.86C286.474 168.368 285.897 167.667 285.556 166.847C285.216 166.027 285.126 165.124 285.298 164.253C285.471 163.381 285.898 162.581 286.525 161.952C287.153 161.324 287.953 160.896 288.824 160.722C289.695 160.548 290.598 160.637 291.419 160.976C292.239 161.316 292.941 161.891 293.434 162.63C293.928 163.368 294.191 164.236 294.191 165.124C294.191 166.314 293.719 167.455 292.879 168.296C292.038 169.138 290.898 169.612 289.709 169.614Z" fill="#E02E55"/>
<path d="M236.131 280.181C234.986 280.181 233.888 280.635 233.078 281.444C232.267 282.253 231.811 283.351 231.809 284.496V299.021C231.811 302.3 230.601 305.463 228.411 307.904C226.222 310.345 223.208 311.89 219.949 312.244C216.689 312.597 213.414 311.734 210.752 309.819C208.091 307.905 206.23 305.074 205.529 301.871C205.324 301.349 205.219 300.793 205.221 300.232V274.668L166.483 291.267V338.033L240.453 306.334V284.496C240.452 283.351 239.996 282.253 239.185 281.444C238.375 280.635 237.277 280.181 236.131 280.181ZM185.852 311.867C184.964 311.867 184.097 311.604 183.358 311.11C182.62 310.617 182.045 309.916 181.705 309.095C181.365 308.275 181.276 307.373 181.449 306.502C181.623 305.631 182.05 304.831 182.678 304.203C183.306 303.575 184.106 303.148 184.977 302.974C185.847 302.801 186.75 302.89 187.57 303.23C188.391 303.57 189.092 304.145 189.585 304.883C190.078 305.622 190.342 306.49 190.342 307.378C190.343 307.967 190.227 308.551 190.002 309.097C189.776 309.642 189.446 310.137 189.029 310.554C188.612 310.971 188.116 311.302 187.571 311.527C187.026 311.752 186.442 311.868 185.852 311.867Z" fill="#E02E55"/>
<path d="M302.273 279.84L307.178 277.712C309.213 276.841 310.948 275.391 312.167 273.543C313.386 271.695 314.036 269.529 314.035 267.315V228.035L302.28 233.073L302.273 279.84Z" fill="#E02E55"/>
<path d="M275.678 254.008C275.678 250.749 273.946 248.568 271.363 248.568C270.218 248.568 269.12 249.023 268.309 249.832C267.499 250.641 267.043 251.739 267.041 252.884V294.94L276.521 290.872C275.969 289.384 275.683 287.81 275.678 286.222V254.008Z" fill="#E02E55"/>
<path d="M289.708 160.628C288.82 160.627 287.951 160.889 287.212 161.382C286.473 161.874 285.896 162.575 285.556 163.395C285.215 164.215 285.125 165.118 285.297 165.989C285.47 166.861 285.897 167.661 286.524 168.29C287.152 168.918 287.952 169.347 288.823 169.52C289.694 169.694 290.597 169.606 291.418 169.266C292.238 168.926 292.94 168.351 293.433 167.613C293.927 166.874 294.191 166.006 294.191 165.118C294.191 164.529 294.076 163.945 293.851 163.4C293.626 162.856 293.296 162.361 292.88 161.944C292.464 161.527 291.969 161.196 291.425 160.97C290.881 160.745 290.297 160.628 289.708 160.628Z" fill="#914F4A"/>
<path d="M249.258 195.941C248.37 195.941 247.501 196.204 246.763 196.698C246.025 197.191 245.449 197.893 245.11 198.714C244.77 199.534 244.682 200.437 244.855 201.308C245.029 202.179 245.457 202.979 246.086 203.607C246.714 204.234 247.515 204.661 248.386 204.834C249.257 205.006 250.16 204.916 250.981 204.576C251.801 204.235 252.501 203.658 252.994 202.919C253.486 202.18 253.749 201.311 253.747 200.423C253.745 199.234 253.272 198.094 252.43 197.253C251.588 196.413 250.447 195.941 249.258 195.941Z" fill="#914F4A"/>
<path d="M205.221 197.587C207.7 197.587 209.71 195.577 209.71 193.097C209.71 190.618 207.7 188.608 205.221 188.608C202.741 188.608 200.731 190.618 200.731 193.097C200.731 195.577 202.741 197.587 205.221 197.587Z" fill="#914F4A"/>
<path d="M185.852 302.888C184.964 302.888 184.096 303.152 183.358 303.645C182.619 304.138 182.044 304.839 181.704 305.66C181.364 306.48 181.275 307.383 181.449 308.254C181.622 309.124 182.049 309.924 182.677 310.552C183.305 311.18 184.105 311.608 184.976 311.781C185.847 311.954 186.749 311.865 187.57 311.525C188.39 311.186 189.091 310.61 189.584 309.872C190.078 309.134 190.341 308.266 190.341 307.378C190.341 306.187 189.868 305.045 189.026 304.203C188.184 303.361 187.042 302.888 185.852 302.888Z" fill="#914F4A"/>
<path d="M240.318 178.592C242.798 178.592 244.808 176.582 244.808 174.103C244.808 171.624 242.798 169.614 240.318 169.614C237.839 169.614 235.829 171.624 235.829 174.103C235.829 176.582 237.839 178.592 240.318 178.592Z" fill="#914F4A"/>
<path d="M293.295 230.149V223.927L213.818 258.604C214.066 259.169 214.194 259.78 214.193 260.397V299.021C214.193 300.168 214.648 301.267 215.459 302.077C216.269 302.888 217.369 303.343 218.515 303.343C219.661 303.343 220.761 302.888 221.571 302.077C222.382 301.267 222.837 300.168 222.837 299.021V284.496C222.837 280.97 224.238 277.589 226.731 275.096C229.224 272.603 232.605 271.202 236.131 271.202C239.657 271.202 243.038 272.603 245.531 275.096C248.025 277.589 249.425 280.97 249.425 284.496V309.251V315.674C249.402 316.255 249.497 316.835 249.704 317.379C249.91 317.923 250.225 318.42 250.628 318.839C251.031 319.259 251.515 319.593 252.051 319.821C252.586 320.048 253.162 320.166 253.744 320.166C254.326 320.166 254.902 320.048 255.437 319.821C255.972 319.593 256.456 319.259 256.86 318.839C257.263 318.42 257.577 317.923 257.784 317.379C257.991 316.835 258.085 316.255 258.063 315.674V252.884C258.064 249.356 259.466 245.973 261.96 243.478C264.454 240.983 267.836 239.58 271.363 239.576C278.944 239.576 284.657 245.778 284.657 253.994V286.209C284.675 287.175 284.996 288.111 285.574 288.885C286.194 289.226 286.724 289.71 287.119 290.297C287.624 290.588 288.19 290.757 288.772 290.792C289.687 290.841 290.593 290.594 291.357 290.088C292.121 289.582 292.702 288.844 293.014 287.982C292.734 286.951 292.834 285.855 293.295 284.891V230.149Z" fill="#EBE2E3"/>
<path d="M162.027 183.423L314.029 118.284L162.027 183.423Z" fill="#EBE2E3"/>
<path d="M157.504 191.278L120.445 175.401V228.664L157.504 244.547V191.278ZM134.087 214.775C133.199 214.776 132.33 214.514 131.591 214.021C130.852 213.529 130.276 212.828 129.935 212.008C129.594 211.188 129.504 210.285 129.677 209.414C129.849 208.542 130.276 207.742 130.904 207.113C131.531 206.485 132.331 206.057 133.202 205.883C134.073 205.709 134.976 205.798 135.797 206.137C136.618 206.477 137.319 207.052 137.813 207.791C138.306 208.529 138.57 209.397 138.57 210.285C138.572 211.47 138.105 212.606 137.271 213.448C136.438 214.289 135.305 214.766 134.121 214.775H134.087Z" fill="#F4366B"/>
<g style="mix-blend-mode:soft-light" opacity="0.2">
<path d="M157.504 191.278L120.445 175.401V228.664L157.504 244.547V191.278ZM134.087 214.775C133.199 214.776 132.33 214.514 131.591 214.021C130.852 213.529 130.276 212.828 129.935 212.008C129.594 211.188 129.504 210.285 129.677 209.414C129.849 208.542 130.276 207.742 130.904 207.113C131.531 206.485 132.331 206.057 133.202 205.883C134.073 205.709 134.976 205.798 135.797 206.137C136.618 206.477 137.319 207.052 137.813 207.791C138.306 208.529 138.57 209.397 138.57 210.285C138.572 211.47 138.105 212.606 137.271 213.448C136.438 214.289 135.305 214.766 134.121 214.775H134.087Z" fill="white"/>
</g>
<path d="M93.8581 196.951C93.8581 193.699 92.1253 191.512 89.5361 191.512C88.391 191.513 87.2933 191.97 86.4842 192.78C85.6751 193.59 85.2207 194.689 85.2207 195.834V213.57L93.8581 217.27V196.951Z" fill="#F4366B"/>
<g style="mix-blend-mode:soft-light" opacity="0.2">
<path d="M93.8581 196.951C93.8581 193.699 92.1253 191.512 89.5361 191.512C88.391 191.513 87.2933 191.97 86.4842 192.78C85.6751 193.59 85.2207 194.689 85.2207 195.834V213.57L93.8581 217.27V196.951Z" fill="white"/>
</g>
<path d="M9.96582 181.315L23.4003 187.076V133.806L9.96582 128.052V181.315Z" fill="#F4366B"/>
<g style="mix-blend-mode:soft-light" opacity="0.2">
<path d="M9.96582 181.315L23.4003 187.076V133.806L9.96582 128.052V181.315Z" fill="white"/>
</g>
<path d="M58.6251 175.388C58.648 174.806 58.5533 174.226 58.3466 173.682C58.1398 173.138 57.8254 172.642 57.4221 172.222C57.0188 171.803 56.535 171.469 55.9996 171.241C55.4642 171.013 54.8883 170.896 54.3064 170.896C53.7245 170.896 53.1486 171.013 52.6133 171.241C52.0779 171.469 51.594 171.803 51.1908 172.222C50.7875 172.642 50.473 173.138 50.2663 173.682C50.0596 174.226 49.9648 174.806 49.9877 175.388V198.47L58.6251 202.17V175.388Z" fill="#F4366B"/>
<g style="mix-blend-mode:soft-light" opacity="0.2">
<path d="M58.6251 175.388C58.648 174.806 58.5533 174.226 58.3466 173.682C58.1398 173.138 57.8254 172.642 57.4221 172.222C57.0188 171.803 56.535 171.469 55.9996 171.241C55.4642 171.013 54.8883 170.896 54.3064 170.896C53.7245 170.896 53.1486 171.013 52.6133 171.241C52.0779 171.469 51.594 171.803 51.1908 172.222C50.7875 172.642 50.473 173.138 50.2663 173.682C50.0596 174.226 49.9648 174.806 49.9877 175.388V198.47L58.6251 202.17V175.388Z" fill="white"/>
</g>
<path d="M85.2202 237.97C85.2226 241.216 84.0321 244.35 81.875 246.775L157.518 279.19V254.295L118.84 237.743C118.183 238.963 117.342 240.073 116.344 241.035C115.048 242.279 113.511 243.247 111.828 243.879C110.146 244.51 108.352 244.792 106.556 244.708C99.558 244.4 93.8443 238.318 93.8443 231.146V227.038L85.2069 223.332L85.2202 237.97Z" fill="white"/>
<g style="mix-blend-mode:soft-light" opacity="0.2">
<path d="M85.2202 237.97C85.2226 241.216 84.0321 244.35 81.875 246.775L157.518 279.19V254.295L118.84 237.743C118.183 238.963 117.342 240.073 116.344 241.035C115.048 242.279 113.511 243.247 111.828 243.879C110.146 244.51 108.352 244.792 106.556 244.708C99.558 244.4 93.8443 238.318 93.8443 231.146V227.038L85.2069 223.332L85.2202 237.97Z" fill="white"/>
</g>
<path d="M36.6942 214.005C33.1695 214.002 29.7901 212.6 27.2978 210.107C24.8055 207.615 23.4037 204.236 23.4002 200.711V196.837L9.95898 191.083V215.959L58.6256 236.82V211.938L48.1416 207.462C46.9674 209.454 45.2938 211.105 43.2863 212.253C41.2787 213.4 39.0066 214.004 36.6942 214.005Z" fill="white"/>
<g style="mix-blend-mode:soft-light" opacity="0.2">
<path d="M36.6942 214.005C33.1695 214.002 29.7901 212.6 27.2978 210.107C24.8055 207.615 23.4037 204.236 23.4002 200.711V196.837L9.95898 191.083V215.959L58.6256 236.82V211.938L48.1416 207.462C46.9674 209.454 45.2938 211.105 43.2863 212.253C41.2787 213.4 39.0066 214.004 36.6942 214.005Z" fill="white"/>
</g>
<path d="M157.504 338.033V288.959L68.4138 250.783C67.2506 250.459 66.1366 249.98 65.102 249.358L9.95898 225.727V267.342C9.95927 269.289 10.4596 271.204 11.412 272.902C12.3644 274.601 13.737 276.027 15.3984 277.043C15.8523 277.299 16.3241 277.523 16.81 277.712L122.326 322.933L157.504 338.033ZM43.1505 263.769C42.2626 263.769 41.3946 263.506 40.6564 263.012C39.9181 262.519 39.3427 261.818 39.0029 260.998C38.6631 260.177 38.5742 259.275 38.7474 258.404C38.9207 257.533 39.3482 256.733 39.9761 256.105C40.6039 255.477 41.4038 255.05 42.2747 254.877C43.1455 254.703 44.0482 254.792 44.8685 255.132C45.6888 255.472 46.3899 256.047 46.8832 256.785C47.3765 257.524 47.6398 258.392 47.6398 259.28C47.6327 260.466 47.1569 261.602 46.3159 262.439C45.475 263.276 44.3371 263.747 43.1505 263.749V263.769ZM71.9196 296.184C71.0314 296.186 70.1628 295.923 69.4236 295.431C68.6845 294.939 68.108 294.238 67.7672 293.418C67.4264 292.597 67.3366 291.695 67.509 290.823C67.6815 289.952 68.1085 289.152 68.7361 288.523C69.3637 287.894 70.1636 287.466 71.0346 287.292C71.9057 287.119 72.8086 287.207 73.6293 287.547C74.45 287.886 75.1516 288.462 75.6452 289.2C76.1388 289.939 76.4022 290.807 76.4022 291.695C76.3987 292.88 75.9258 294.016 75.0869 294.854C74.2481 295.691 73.1117 296.163 71.9263 296.164L71.9196 296.184ZM119.737 299.77C119.737 298.883 120 298.015 120.493 297.276C120.986 296.538 121.688 295.963 122.508 295.623C123.328 295.283 124.231 295.194 125.102 295.367C125.973 295.541 126.772 295.968 127.4 296.596C128.028 297.224 128.456 298.024 128.629 298.895C128.802 299.765 128.713 300.668 128.373 301.488C128.034 302.309 127.458 303.01 126.72 303.503C125.982 303.996 125.114 304.26 124.226 304.26C123.635 304.26 123.05 304.143 122.504 303.916C121.959 303.689 121.463 303.356 121.047 302.937C120.63 302.518 120.3 302.021 120.077 301.474C119.853 300.927 119.74 300.341 119.743 299.75L119.737 299.77Z" fill="#F4366B"/>
<g style="mix-blend-mode:soft-light" opacity="0.2">
<path d="M157.504 338.033V288.959L68.4138 250.783C67.2506 250.459 66.1366 249.98 65.102 249.358L9.95898 225.727V267.342C9.95927 269.289 10.4596 271.204 11.412 272.902C12.3644 274.601 13.737 276.027 15.3984 277.043C15.8523 277.299 16.3241 277.523 16.81 277.712L122.326 322.933L157.504 338.033ZM43.1505 263.769C42.2626 263.769 41.3946 263.506 40.6564 263.012C39.9181 262.519 39.3427 261.818 39.0029 260.998C38.6631 260.177 38.5742 259.275 38.7474 258.404C38.9207 257.533 39.3482 256.733 39.9761 256.105C40.6039 255.477 41.4038 255.05 42.2747 254.877C43.1455 254.703 44.0482 254.792 44.8685 255.132C45.6888 255.472 46.3899 256.047 46.8832 256.785C47.3765 257.524 47.6398 258.392 47.6398 259.28C47.6327 260.466 47.1569 261.602 46.3159 262.439C45.475 263.276 44.3371 263.747 43.1505 263.749V263.769ZM71.9196 296.184C71.0314 296.186 70.1628 295.923 69.4236 295.431C68.6845 294.939 68.108 294.238 67.7672 293.418C67.4264 292.597 67.3366 291.695 67.509 290.823C67.6815 289.952 68.1085 289.152 68.7361 288.523C69.3637 287.894 70.1636 287.466 71.0346 287.292C71.9057 287.119 72.8086 287.207 73.6293 287.547C74.45 287.886 75.1516 288.462 75.6452 289.2C76.1388 289.939 76.4022 290.807 76.4022 291.695C76.3987 292.88 75.9258 294.016 75.0869 294.854C74.2481 295.691 73.1117 296.163 71.9263 296.164L71.9196 296.184ZM119.737 299.77C119.737 298.883 120 298.015 120.493 297.276C120.986 296.538 121.688 295.963 122.508 295.623C123.328 295.283 124.231 295.194 125.102 295.367C125.973 295.541 126.772 295.968 127.4 296.596C128.028 297.224 128.456 298.024 128.629 298.895C128.802 299.765 128.713 300.668 128.373 301.488C128.034 302.309 127.458 303.01 126.72 303.503C125.982 303.996 125.114 304.26 124.226 304.26C123.635 304.26 123.05 304.143 122.504 303.916C121.959 303.689 121.463 303.356 121.047 302.937C120.63 302.518 120.3 302.021 120.077 301.474C119.853 300.927 119.74 300.341 119.743 299.75L119.737 299.77Z" fill="white"/>
</g>
<path d="M128.715 299.75C128.715 298.862 128.451 297.994 127.958 297.255C127.464 296.517 126.763 295.942 125.942 295.602C125.121 295.262 124.218 295.174 123.347 295.348C122.476 295.522 121.676 295.95 121.049 296.578C120.421 297.207 119.994 298.007 119.822 298.879C119.649 299.75 119.739 300.653 120.08 301.473C120.421 302.293 120.997 302.994 121.736 303.486C122.476 303.979 123.344 304.241 124.232 304.24C124.822 304.24 125.405 304.123 125.949 303.898C126.494 303.672 126.988 303.341 127.404 302.924C127.821 302.507 128.151 302.012 128.376 301.468C128.601 300.923 128.716 300.34 128.715 299.75Z" fill="#914F4A"/>
<g style="mix-blend-mode:soft-light" opacity="0.2">
<path d="M128.715 299.75C128.715 298.862 128.451 297.994 127.958 297.255C127.464 296.517 126.763 295.942 125.942 295.602C125.121 295.262 124.218 295.174 123.347 295.348C122.476 295.522 121.676 295.95 121.049 296.578C120.421 297.207 119.994 298.007 119.822 298.879C119.649 299.75 119.739 300.653 120.08 301.473C120.421 302.293 120.997 302.994 121.736 303.486C122.476 303.979 123.344 304.241 124.232 304.24C124.822 304.24 125.405 304.123 125.949 303.898C126.494 303.672 126.988 303.341 127.404 302.924C127.821 302.507 128.151 302.012 128.376 301.468C128.601 300.923 128.716 300.34 128.715 299.75Z" fill="white"/>
</g>
<path d="M71.9257 287.186C71.0375 287.184 70.1689 287.446 69.4298 287.939C68.6906 288.431 68.1142 289.132 67.7733 289.952C67.4325 290.772 67.3427 291.675 67.5151 292.547C67.6876 293.418 68.1146 294.218 68.7422 294.847C69.3698 295.475 70.1697 295.904 71.0407 296.077C71.9117 296.251 72.8147 296.163 73.6354 295.823C74.4561 295.484 75.1577 294.908 75.6513 294.17C76.1449 293.431 76.4083 292.563 76.4083 291.675C76.4083 290.485 75.9363 289.345 75.0958 288.503C74.2553 287.661 73.1152 287.187 71.9257 287.186Z" fill="#914F4A"/>
<g style="mix-blend-mode:soft-light" opacity="0.2">
<path d="M71.9257 287.186C71.0375 287.184 70.1689 287.446 69.4298 287.939C68.6906 288.431 68.1142 289.132 67.7733 289.952C67.4325 290.772 67.3427 291.675 67.5151 292.547C67.6876 293.418 68.1146 294.218 68.7422 294.847C69.3698 295.475 70.1697 295.904 71.0407 296.077C71.9117 296.251 72.8147 296.163 73.6354 295.823C74.4561 295.484 75.1577 294.908 75.6513 294.17C76.1449 293.431 76.4083 292.563 76.4083 291.675C76.4083 290.485 75.9363 289.345 75.0958 288.503C74.2553 287.661 73.1152 287.187 71.9257 287.186Z" fill="white"/>
</g>
<path d="M134.12 205.796C133.232 205.795 132.363 206.057 131.624 206.549C130.885 207.042 130.308 207.742 129.968 208.563C129.627 209.383 129.537 210.286 129.709 211.157C129.882 212.028 130.309 212.829 130.937 213.457C131.564 214.086 132.364 214.514 133.235 214.688C134.106 214.862 135.009 214.773 135.83 214.433C136.65 214.094 137.352 213.518 137.846 212.78C138.339 212.042 138.603 211.173 138.603 210.285C138.603 209.096 138.131 207.955 137.29 207.113C136.45 206.271 135.31 205.798 134.12 205.796Z" fill="#914F4A"/>
<g style="mix-blend-mode:soft-light" opacity="0.2">
<path d="M134.12 205.796C133.232 205.795 132.363 206.057 131.624 206.549C130.885 207.042 130.308 207.742 129.968 208.563C129.627 209.383 129.537 210.286 129.709 211.157C129.882 212.028 130.309 212.829 130.937 213.457C131.564 214.086 132.364 214.514 133.235 214.688C134.106 214.862 135.009 214.773 135.83 214.433C136.65 214.094 137.352 213.518 137.846 212.78C138.339 212.042 138.603 211.173 138.603 210.285C138.603 209.096 138.131 207.955 137.29 207.113C136.45 206.271 135.31 205.798 134.12 205.796Z" fill="white"/>
</g>
<path d="M43.1495 254.77C42.2616 254.77 41.3936 255.034 40.6553 255.527C39.9171 256.02 39.3417 256.721 39.0019 257.542C38.6621 258.362 38.5732 259.265 38.7464 260.135C38.9196 261.006 39.3472 261.806 39.975 262.434C40.6029 263.062 41.4028 263.489 42.2736 263.663C43.1445 263.836 44.0471 263.747 44.8675 263.407C45.6878 263.067 46.3889 262.492 46.8822 261.754C47.3755 261.015 47.6388 260.147 47.6388 259.26C47.6388 258.069 47.1658 256.927 46.3239 256.085C45.482 255.243 44.3401 254.77 43.1495 254.77Z" fill="#914F4A"/>
<g style="mix-blend-mode:soft-light" opacity="0.2">
<path d="M43.1495 254.77C42.2616 254.77 41.3936 255.034 40.6553 255.527C39.9171 256.02 39.3417 256.721 39.0019 257.542C38.6621 258.362 38.5732 259.265 38.7464 260.135C38.9196 261.006 39.3472 261.806 39.975 262.434C40.6029 263.062 41.4028 263.489 42.2736 263.663C43.1445 263.836 44.0471 263.747 44.8675 263.407C45.6878 263.067 46.3889 262.492 46.8822 261.754C47.3755 261.015 47.6388 260.147 47.6388 259.26C47.6388 258.069 47.1658 256.927 46.3239 256.085C45.482 255.243 44.3401 254.77 43.1495 254.77Z" fill="white"/>
</g>
<path d="M162 183.443L162.027 183.423L162 183.443Z" fill="#EBE2E3"/>
<g style="mix-blend-mode:soft-light" opacity="0.2">
<path d="M162 183.443L162.027 183.423L162 183.443Z" fill="white"/>
</g>
<path d="M233.475 56.4776C234.03 56.7185 234.599 56.9527 235.147 57.2002C237.824 58.4128 240.588 59.4215 243.417 60.2176L273.397 68.748C274.273 68.9975 275.052 69.5075 275.631 70.2102C276.21 70.913 276.562 71.7753 276.64 72.6826C276.717 73.5899 276.517 74.4994 276.066 75.2904C275.615 76.0813 274.934 76.7164 274.113 77.1111L268.807 79.6736C259.033 84.3569 246.535 86.7989 234.017 86.7989C229.132 86.8032 224.255 86.4206 219.431 85.6548C219.67 86.5149 219.858 87.3885 219.994 88.2708C220.211 89.715 220.702 91.1045 221.439 92.3654L231.347 109.721C231.731 110.402 231.93 111.172 231.924 111.955C231.918 112.737 231.708 113.504 231.315 114.18C230.921 114.856 230.358 115.417 229.681 115.809C229.003 116.2 228.236 116.408 227.453 116.411H227.326L220.208 116.21C200.946 115.655 184.286 109.52 175.783 100.254C173.632 102.229 171.303 104.001 168.825 105.546C166.911 106.715 165.135 108.098 163.532 109.667L147.569 125.684C147.154 126.106 146.659 126.441 146.114 126.671C145.568 126.901 144.983 127.02 144.391 127.022C143.582 127.023 142.789 126.804 142.096 126.387L137.333 123.556C128.822 118.492 123.63 111.741 122.707 104.542C122.339 101.681 122.646 98.7732 123.604 96.0519C120.74 96.3931 117.836 96.6406 114.906 96.7611C111.538 96.8878 108.18 97.214 104.85 97.7379L73.2443 102.89L109.607 118.478C109.873 118.59 110.126 118.729 110.363 118.893L110.577 119.067C110.727 119.177 110.868 119.297 110.999 119.428C111.079 119.502 111.146 119.589 111.22 119.669C111.293 119.75 111.427 119.924 111.521 120.057C111.614 120.191 111.648 120.251 111.708 120.352C111.768 120.452 111.855 120.619 111.915 120.76C111.968 120.869 112.015 120.981 112.056 121.094C112.103 121.235 112.143 121.382 112.183 121.529C112.223 121.676 112.243 121.763 112.263 121.884C112.283 122.004 112.297 122.192 112.303 122.345C112.31 122.499 112.303 122.58 112.303 122.7C112.293 122.884 112.273 123.067 112.243 123.249C112.243 123.342 112.243 123.436 112.21 123.53C112.147 123.818 112.06 124.1 111.949 124.373C111.478 125.465 110.593 126.327 109.488 126.768C108.383 127.209 107.149 127.195 106.054 126.728L10.0393 85.5946L9.95898 85.6482V118.278L23.5808 124.118C23.8684 123.074 24.5252 122.169 25.4293 121.572C26.3333 120.975 27.4233 120.726 28.497 120.871C29.5707 121.017 30.5552 121.547 31.2678 122.363C31.9804 123.179 32.3728 124.226 32.3721 125.309V200.711C32.3721 201.857 32.8275 202.957 33.638 203.767C34.4486 204.578 35.5479 205.033 36.6942 205.033C37.8405 205.033 38.9398 204.578 39.7503 203.767C40.5609 202.957 41.0162 201.857 41.0162 200.711V175.388C41.0162 171.862 42.4168 168.481 44.9099 165.987C47.4031 163.494 50.7844 162.094 54.3102 162.094C57.836 162.094 61.2174 163.494 63.7105 165.987C66.2036 168.481 67.6042 171.862 67.6042 175.388V237.971C67.5814 238.552 67.6761 239.132 67.8828 239.676C68.0895 240.22 68.404 240.717 68.8073 241.136C69.2105 241.555 69.6944 241.889 70.2298 242.117C70.7651 242.345 71.341 242.463 71.9229 242.463C72.5048 242.463 73.0807 242.345 73.6161 242.117C74.1515 241.889 74.6353 241.555 75.0386 241.136C75.4419 240.717 75.7563 240.22 75.9631 239.676C76.1698 239.132 76.2645 238.552 76.2416 237.971V195.82C76.2452 192.295 77.6467 188.915 80.1389 186.422C82.631 183.928 86.0103 182.525 89.5357 182.52C97.116 182.52 102.83 188.722 102.83 196.938V231.146C102.83 233.461 104.797 235.649 106.951 235.743C107.535 235.769 108.118 235.678 108.665 235.473C109.212 235.268 109.713 234.955 110.136 234.552C110.56 234.15 110.898 233.665 111.128 233.128C111.358 232.591 111.476 232.012 111.474 231.427V162.515C111.45 161.912 111.549 161.309 111.764 160.745C111.979 160.18 112.306 159.665 112.725 159.229C113.143 158.794 113.646 158.448 114.202 158.211C114.758 157.975 115.356 157.853 115.96 157.853C116.564 157.853 117.162 157.975 117.718 158.211C118.274 158.448 118.776 158.794 119.195 159.229C119.614 159.665 119.94 160.18 120.155 160.745C120.37 161.309 120.469 161.912 120.446 162.515V165.64L161.994 183.436H162.027V150.325H161.994C161.733 150.322 161.473 150.295 161.218 150.245L160.99 150.198C160.776 150.145 160.566 150.078 160.361 149.997L160.241 149.964L137.573 140.249C137.031 140.017 136.54 139.681 136.128 139.259C135.716 138.837 135.391 138.339 135.171 137.791C134.952 137.244 134.843 136.659 134.85 136.069C134.857 135.479 134.98 134.897 135.212 134.355C135.312 134.137 135.428 133.927 135.56 133.726C135.692 133.523 135.839 133.331 136.001 133.151L136.068 133.07C136.22 132.914 136.381 132.767 136.55 132.629L136.69 132.522C136.846 132.407 137.009 132.302 137.179 132.207C137.252 132.165 137.328 132.127 137.406 132.094C137.562 132.016 137.723 131.949 137.888 131.893C137.99 131.855 138.095 131.823 138.202 131.799C138.349 131.759 138.497 131.726 138.651 131.699C138.804 131.672 138.918 131.699 139.059 131.659C139.19 131.652 139.322 131.652 139.453 131.659C139.628 131.663 139.803 131.681 139.975 131.712C140.079 131.719 140.181 131.733 140.283 131.752C140.565 131.812 140.841 131.899 141.106 132.013L161.994 140.952L216.508 117.589C217.05 117.357 217.632 117.234 218.222 117.227C218.812 117.22 219.397 117.329 219.944 117.548C220.492 117.768 220.99 118.093 221.412 118.505C221.834 118.917 222.17 119.408 222.402 119.95L247.826 109.065C247.357 107.971 247.341 106.735 247.783 105.63C248.225 104.525 249.087 103.64 250.181 103.171L302.601 80.7039L239.603 53.7078C237.617 54.752 235.571 55.6769 233.475 56.4776Z" fill="white"/>
<path d="M220.047 125.838L163.76 149.964L163.64 149.997C163.435 150.078 163.225 150.145 163.011 150.198L162.783 150.245C162.534 150.292 162.281 150.318 162.027 150.325V183.423L314.029 118.278V85.648V85.6079L313.955 85.5745L253.707 111.4C252.613 111.869 251.378 111.884 250.272 111.443C249.167 111.001 248.282 110.138 247.813 109.045L222.389 119.93C222.625 120.472 222.751 121.054 222.761 121.645C222.77 122.235 222.663 122.822 222.446 123.371C222.228 123.92 221.904 124.42 221.493 124.844C221.081 125.267 220.59 125.605 220.047 125.838Z" fill="#EBE2E3"/>
<path d="M67.1693 98.1861L67.5574 94.3792C68.5476 84.5308 77.1449 75.9937 90.5125 70.842C89.9571 70.6079 89.3885 70.3737 88.8398 70.1195C86.1637 68.9058 83.3993 67.8971 80.5704 67.102L64.0917 62.4187L21.4131 80.7105L67.5775 100.488C67.24 99.7701 67.0991 98.9759 67.1693 98.1861Z" fill="white"/>
<path d="M163.011 150.198C163.224 150.145 163.435 150.078 163.639 149.997L163.76 149.964L220.047 125.838C221.116 125.352 221.951 124.467 222.375 123.372C222.799 122.277 222.777 121.06 222.314 119.981C221.851 118.902 220.984 118.048 219.899 117.601C218.814 117.153 217.596 117.149 216.508 117.589L161.994 140.952L141.092 132C140.828 131.885 140.552 131.797 140.27 131.739C140.168 131.719 140.065 131.706 139.962 131.699C139.789 131.668 139.615 131.65 139.44 131.645C139.308 131.639 139.177 131.639 139.045 131.645C138.905 131.645 138.771 131.645 138.637 131.685C138.503 131.725 138.336 131.746 138.189 131.786L137.874 131.879C137.709 131.935 137.548 132.002 137.393 132.08C137.315 132.114 137.239 132.152 137.165 132.194C136.996 132.288 136.833 132.393 136.677 132.508L136.536 132.615C136.368 132.754 136.207 132.901 136.055 133.057L135.988 133.137C135.826 133.317 135.678 133.51 135.546 133.713C135.414 133.913 135.298 134.123 135.198 134.341C134.966 134.884 134.843 135.466 134.836 136.056C134.829 136.645 134.939 137.231 135.158 137.778C135.377 138.325 135.702 138.824 136.114 139.246C136.527 139.668 137.018 140.004 137.56 140.236L160.227 149.95L160.348 149.984C160.553 150.065 160.763 150.132 160.977 150.185L161.204 150.231C161.46 150.282 161.72 150.308 161.98 150.312H162.027C162.281 150.305 162.534 150.278 162.783 150.231L163.011 150.198Z" fill="#914F4A"/>
<path d="M323 121.208V85.6481C323 84.4569 322.763 83.2776 322.303 82.1786C321.844 81.0795 321.171 80.0825 320.324 79.2453C319.854 78.5906 319.216 78.0751 318.477 77.7533L279.077 60.8732L248.301 47.6863C251.98 44.341 254.536 40.5208 255.727 36.4128C256.056 35.2784 256.28 34.116 256.396 32.9404L256.778 29.1402C256.847 28.4551 256.758 27.7633 256.517 27.1181C256.276 26.473 255.89 25.8919 255.389 25.4197C254.888 24.9476 254.285 24.5971 253.626 24.3953C252.968 24.1935 252.272 24.146 251.592 24.2562L245.129 25.3133L219.103 29.555C215.781 30.0893 212.43 30.4267 209.068 30.5653H208.445L201.28 27.4944C201.484 25.9198 201.484 24.3254 201.28 22.7508C200.357 15.5585 195.165 8.80115 186.654 3.74314L181.891 0.906375C181.035 0.392191 180.031 0.178768 179.039 0.299978C178.048 0.421187 177.125 0.870085 176.418 1.57542L165.198 12.8355C161.144 12.2455 157.005 12.7825 153.236 14.3877L139.634 20.2218C130.508 14.8226 117.836 11.4573 103.779 11.0491L96.6607 10.8484C95.8684 10.8304 95.0853 11.0224 94.3912 11.405C93.6971 11.7877 93.1167 12.3472 92.7089 13.0269C92.3011 13.7065 92.0805 14.482 92.0695 15.2745C92.0586 16.067 92.2576 16.8483 92.6464 17.5389L102.562 34.9007C102.749 35.2219 102.916 35.5698 103.07 35.8776L92.2651 40.5074C78.9978 40.1929 65.5633 42.6149 55.1931 47.5926L52.7109 48.7835L49.8875 50.1216C49.0931 50.5039 48.4293 51.1124 47.9794 51.8706C47.5294 52.6288 47.3135 53.503 47.3585 54.3835C47.3552 54.4392 47.3552 54.495 47.3585 54.5507C47.4343 55.4264 47.7657 56.2604 48.3117 56.9492C48.8578 57.6379 49.5942 58.151 50.4295 58.4245L38.7211 63.4424L5.78381 77.6664C5.22536 77.9045 4.72202 78.2553 4.30522 78.6967C3.26366 79.5378 2.42288 80.6006 1.84417 81.8078C1.26545 83.015 0.963386 84.3361 0.959976 85.6749V184.246V218.883V267.342C0.955441 271.055 1.97227 274.698 3.89923 277.872C5.8262 281.047 8.58906 283.63 11.8856 285.339C12.3338 285.573 12.7888 285.794 13.2571 286.008L105.124 325.348L160.227 348.966C160.268 348.982 160.311 348.995 160.354 349.006C160.554 349.087 160.76 349.151 160.97 349.2L161.19 349.247C161.455 349.296 161.724 349.323 161.993 349.327C162.263 349.323 162.531 349.296 162.796 349.247L163.01 349.2C163.225 349.151 163.435 349.087 163.639 349.006L163.76 348.966L240.473 316.089C240.583 319.572 242.058 322.873 244.579 325.279C247.1 327.686 250.466 329.005 253.951 328.954C257.436 328.902 260.761 327.483 263.209 325.003C265.658 322.522 267.034 319.179 267.041 315.694V304.701L282.549 298.058C284.322 299.1 286.322 299.695 288.377 299.791C290.173 299.879 291.968 299.599 293.651 298.967C295.334 298.335 296.871 297.366 298.165 296.118C299.953 294.395 301.225 292.208 301.838 289.802L310.703 286.002C314.355 284.442 317.468 281.842 319.654 278.527C321.841 275.212 323.004 271.327 323 267.355V121.208ZM166.483 244.547V191.278L314.028 128.046V181.315L166.483 244.547ZM302.574 80.7038L250.154 103.17C249.6 103.394 249.096 103.726 248.672 104.148C248.248 104.569 247.912 105.07 247.684 105.623C247.456 106.175 247.341 106.768 247.346 107.366C247.35 107.963 247.473 108.554 247.709 109.103C247.945 109.653 248.288 110.149 248.718 110.564C249.148 110.979 249.657 111.304 250.214 111.52C250.771 111.736 251.366 111.838 251.964 111.821C252.561 111.804 253.149 111.667 253.693 111.42L313.941 85.5946L314.015 85.628V85.6682V118.278L162.027 183.423H161.993L120.445 165.62V162.495C120.469 161.891 120.37 161.289 120.155 160.725C119.94 160.16 119.613 159.645 119.195 159.209C118.776 158.774 118.273 158.428 117.717 158.191C117.161 157.954 116.564 157.832 115.959 157.832C115.355 157.832 114.757 157.954 114.202 158.191C113.646 158.428 113.143 158.774 112.724 159.209C112.305 159.645 111.979 160.16 111.764 160.725C111.549 161.289 111.45 161.891 111.473 162.495V231.407C111.476 231.992 111.358 232.57 111.128 233.108C110.898 233.645 110.56 234.13 110.135 234.532C109.712 234.935 109.212 235.248 108.665 235.453C108.118 235.657 107.534 235.749 106.951 235.722C104.796 235.629 102.829 233.441 102.829 231.126V196.951C102.829 188.735 97.1157 182.533 89.5354 182.533C86.01 182.538 82.6307 183.942 80.1386 186.435C77.6464 188.928 76.2449 192.308 76.2414 195.834V237.984C76.2642 238.565 76.1695 239.145 75.9628 239.689C75.7561 240.233 75.4416 240.73 75.0383 241.149C74.6351 241.569 74.1512 241.902 73.6158 242.13C73.0805 242.358 72.5045 242.476 71.9227 242.476C71.3408 242.476 70.7648 242.358 70.2295 242.13C69.6941 241.902 69.2102 241.569 68.807 241.149C68.4037 240.73 68.0892 240.233 67.8825 239.689C67.6758 239.145 67.5811 238.565 67.6039 237.984V175.388C67.6039 171.862 66.2033 168.48 63.7102 165.987C61.2171 163.494 57.8357 162.094 54.3099 162.094C50.7841 162.094 47.4028 163.494 44.9097 165.987C42.4165 168.48 41.0159 171.862 41.0159 175.388V200.711C41.0159 201.857 40.5606 202.957 39.75 203.767C38.9395 204.578 37.8402 205.033 36.6939 205.033C35.5476 205.033 34.4483 204.578 33.6377 203.767C32.8272 202.957 32.3718 201.857 32.3718 200.711V125.309C32.3725 124.226 31.9801 123.179 31.2675 122.363C30.5549 121.547 29.5704 121.017 28.4967 120.871C27.423 120.726 26.3331 120.975 25.429 121.572C24.5249 122.169 23.8681 123.074 23.5805 124.118L9.95869 118.278V85.6481L10.039 85.5946L106.074 126.754C107.168 127.222 108.403 127.236 109.508 126.795C110.613 126.353 111.498 125.492 111.969 124.399C112.08 124.127 112.167 123.844 112.229 123.556C112.229 123.463 112.23 123.369 112.263 123.275C112.293 123.094 112.313 122.911 112.323 122.727C112.323 122.606 112.323 122.493 112.323 122.372C112.323 122.252 112.323 122.064 112.283 121.911C112.243 121.757 112.229 121.676 112.203 121.556C112.176 121.436 112.122 121.262 112.076 121.121C112.035 121.007 111.988 120.896 111.935 120.787C111.875 120.646 111.801 120.512 111.728 120.378C111.654 120.245 111.607 120.178 111.54 120.084C111.473 119.99 111.346 119.823 111.239 119.696C111.132 119.569 111.099 119.529 111.019 119.455C110.887 119.324 110.747 119.203 110.597 119.094L110.383 118.92C110.145 118.757 109.892 118.618 109.627 118.505L73.2641 102.916L104.87 97.7646C108.203 97.229 111.566 96.8916 114.939 96.7543C117.856 96.6339 120.76 96.3863 123.637 96.0451C122.68 98.7665 122.373 101.674 122.74 104.535C123.664 111.734 128.855 118.485 137.366 123.55L142.129 126.38C142.822 126.797 143.616 127.017 144.424 127.015C145.016 127.013 145.601 126.894 146.147 126.664C146.692 126.434 147.187 126.099 147.602 125.677L163.566 109.66C165.169 108.091 166.944 106.709 168.858 105.539C171.336 103.994 173.666 102.223 175.816 100.247C184.32 109.54 200.979 115.635 220.241 116.204L227.359 116.404H227.487C228.269 116.401 229.037 116.193 229.714 115.802C230.391 115.411 230.954 114.849 231.348 114.173C231.741 113.497 231.951 112.73 231.957 111.948C231.963 111.166 231.764 110.396 231.38 109.714L221.438 92.3854C220.701 91.1245 220.211 89.735 219.993 88.2908C219.858 87.4085 219.67 86.535 219.431 85.6749C224.255 86.4407 229.132 86.8232 234.016 86.8189C246.534 86.8189 259.032 84.3836 268.807 79.6936L274.113 77.1445C274.933 76.7497 275.614 76.1148 276.066 75.3238C276.517 74.5329 276.717 73.6233 276.64 72.716C276.562 71.8086 276.21 70.9464 275.631 70.2436C275.052 69.5409 274.273 69.0309 273.397 68.7814L243.417 60.2176C240.588 59.4214 237.824 58.4127 235.147 57.2002C234.599 56.9526 234.03 56.7184 233.475 56.4776C235.566 55.6763 237.608 54.7514 239.59 53.7077L302.574 80.7038ZM15.3981 277.043C13.7416 276.03 12.372 274.609 11.4199 272.917C10.4677 271.225 9.9647 269.317 9.95869 267.375V225.727L65.1017 249.358C66.1363 249.98 67.2503 250.459 68.4135 250.783L157.504 288.959V338.033L122.332 322.96L16.8097 277.712C16.3238 277.523 15.852 277.299 15.3981 277.043ZM58.6253 211.971V236.853L9.95869 215.959V191.084L23.3999 196.837V200.711C23.3903 203.634 24.345 206.478 26.1161 208.803C27.8872 211.128 30.3758 212.803 33.196 213.57C36.0163 214.337 39.0107 214.152 41.7152 213.044C44.4196 211.936 46.6831 209.967 48.1547 207.442L58.6253 211.971ZM49.9879 198.503V175.421C49.965 174.84 50.0598 174.26 50.2665 173.716C50.4732 173.172 50.7876 172.675 51.1909 172.256C51.5942 171.836 52.078 171.502 52.6134 171.274C53.1488 171.047 53.7247 170.929 54.3066 170.929C54.8885 170.929 55.4644 171.047 55.9998 171.274C56.5351 171.502 57.019 171.836 57.4223 172.256C57.8256 172.675 58.14 173.172 58.3467 173.716C58.5534 174.26 58.6482 174.84 58.6253 175.421V202.183L49.9879 198.503ZM23.3999 187.129L9.95869 181.369V128.046L23.3999 133.806V187.129ZM93.8574 227.092V231.2C93.8574 238.372 99.5577 244.454 106.569 244.761C108.365 244.846 110.159 244.564 111.842 243.932C113.524 243.301 115.061 242.333 116.358 241.088C117.355 240.127 118.197 239.016 118.853 237.797L157.504 254.295V279.171L81.8614 246.775C84.0185 244.35 85.209 241.216 85.2066 237.97V223.332L93.8574 227.092ZM85.22 213.624V195.834C85.22 194.689 85.6744 193.59 86.4835 192.78C87.2926 191.97 88.3902 191.513 89.5354 191.512C92.1246 191.512 93.8574 193.699 93.8574 196.951V217.27L85.22 213.624ZM120.445 228.718V175.401L157.504 191.278V244.547L120.445 228.718ZM137.56 80.6838C135.14 82.1886 132.863 83.9107 130.755 85.8288C129.498 86.1098 128.213 86.364 126.902 86.5781C122.81 87.25 118.681 87.6723 114.538 87.8426C110.808 87.996 107.091 88.3691 103.405 88.9599L76.9104 93.2819C79.3591 85.4072 91.1411 78.4023 106.73 75.8198C110.82 75.1508 114.946 74.7285 119.087 74.5553C122.817 74.4062 126.535 74.0331 130.22 73.438L134.97 72.6686C136.466 74.9288 138.232 76.998 140.229 78.8305C139.413 79.4059 138.523 80.0281 137.56 80.6302V80.6838ZM142.317 88.2975C144.314 87.0404 146.197 85.6098 147.943 84.0223C154.569 87.2356 162.091 88.0992 169.273 86.471C169.34 86.7587 169.4 87.0464 169.44 87.3408C169.709 89.1142 170.185 90.8499 170.858 92.5125L170.611 92.7869C168.63 94.7549 166.428 96.4859 164.047 97.9452C161.556 99.4773 159.247 101.286 157.163 103.338L143.668 116.879L141.922 115.836C135.834 112.209 132.174 107.807 131.612 103.391C131.17 99.9925 132.569 96.6272 135.76 93.3957C137.74 91.4315 139.94 89.7028 142.317 88.244V88.2975ZM199.019 79.5999C202.063 80.9754 205.191 82.1553 208.385 83.1325C208.666 83.5339 208.934 83.9353 209.175 84.3435C210.144 85.9719 210.793 87.7704 211.088 89.6423C211.477 92.1897 212.337 94.6424 213.624 96.8747L219.572 107.285C201.374 106.576 185.27 100.1 180.232 91.4019C179.265 89.7725 178.615 87.9744 178.318 86.103C178.172 85.1753 177.962 84.2587 177.689 83.36C181.3 81.3754 184.505 78.729 187.136 75.5589L190.729 76.5825C193.562 77.3549 196.333 78.3389 199.019 79.5263V79.5999ZM192.014 67.6039C193.166 64.9034 193.945 62.0582 194.329 59.1471C203.364 58.5026 212.444 59.3778 221.191 61.7363C224.69 62.7064 228.11 63.9433 231.421 65.4361C234.504 66.8128 237.686 67.9556 240.941 68.855L259.005 73.9799C245.277 78.6632 227.614 79.1784 212.995 75.0637C209.497 74.0934 206.079 72.8542 202.772 71.3572C199.683 69.9599 196.494 68.7948 193.231 67.8715L192.014 67.6039ZM197.085 40.8419C201.176 40.1543 205.305 39.7163 209.449 39.5306C213.179 39.3811 216.897 39.008 220.582 38.4132L247.076 34.0912C244.628 41.9659 232.866 48.9642 217.29 51.5467C209.709 50.1231 201.98 49.6467 194.282 50.1283C193.904 47.4956 193.201 44.9201 192.188 42.461C192.542 42.1599 192.857 41.8522 193.231 41.5444C194.489 41.2634 195.774 41.0136 197.085 40.7951V40.8419ZM180.305 10.4872L182.065 11.5376C188.153 15.1571 191.813 19.5661 192.375 23.9752C192.816 27.3739 191.418 30.7393 188.227 33.9708C188.013 34.1916 187.772 34.399 187.558 34.6398C182.681 28.4504 175.722 24.2442 167.975 22.8043L180.305 10.4872ZM162.127 31.2611C166.773 31.2704 171.312 32.6564 175.171 35.244C179.03 37.8317 182.035 41.5049 183.807 45.7997C185.579 50.0944 186.039 54.818 185.128 59.3739C184.217 63.9297 181.976 68.1133 178.688 71.3962C175.401 74.6791 171.214 76.914 166.657 77.8186C162.1 78.7232 157.377 78.257 153.084 76.4787C148.792 74.7005 145.123 71.69 142.541 67.8276C139.959 63.9652 138.579 59.4242 138.577 54.7782C138.573 51.6861 139.18 48.6237 140.363 45.7667C141.545 42.9097 143.281 40.3143 145.469 38.1294C147.657 35.9445 150.254 34.2131 153.113 33.0345C155.972 31.8558 159.035 31.2532 162.127 31.2611ZM139.707 31.2611C134.525 36.1927 131.116 42.6985 130.013 49.767C128.273 49.1649 126.581 48.5025 124.968 47.7599C121.924 46.3855 118.795 45.2056 115.602 44.2273C115.317 43.8404 115.053 43.4384 114.812 43.023C113.844 41.3917 113.195 39.5912 112.899 37.7174C112.511 35.1698 111.651 32.7169 110.363 30.485L104.395 20.1281C119.127 20.6835 132.482 25.039 139.707 31.2879V31.2611ZM111.019 52.2425C114.515 53.217 117.933 54.4561 121.242 55.949C124.064 57.2219 126.97 58.3015 129.939 59.1805C130.163 60.8639 130.524 62.5264 131.016 64.1516L128.782 64.5128C125.448 65.0485 122.086 65.3858 118.713 65.5231C114.764 65.6912 110.826 66.0686 106.917 66.6538C105.526 66.3527 104.141 66.0249 102.789 65.6435C99.293 64.6702 95.8755 63.4334 92.5662 61.9437C89.4839 60.5498 86.3015 59.3891 83.0456 58.4713L64.9813 53.3397C78.7369 48.6564 96.4266 48.1412 111.019 52.2425ZM64.0914 62.412L80.5701 67.0954C83.399 67.8904 86.1634 68.8991 88.8395 70.1128C89.3882 70.367 89.9569 70.6012 90.5122 70.8354C77.1312 75.987 68.5473 84.5241 67.5571 94.3725L67.1691 98.1794C67.0938 98.9652 67.2277 99.7569 67.5571 100.474L21.3927 80.6971L64.0914 62.412ZM240.453 306.334L166.483 338.033V291.267L205.221 274.668V300.232C205.219 300.793 205.323 301.349 205.528 301.871C206.23 305.074 208.09 307.905 210.752 309.819C213.413 311.734 216.688 312.597 219.948 312.244C223.208 311.89 226.222 310.345 228.411 307.904C230.6 305.463 231.81 302.3 231.809 299.021V284.496C231.809 283.35 232.264 282.251 233.075 281.44C233.885 280.629 234.984 280.174 236.131 280.174C237.277 280.174 238.376 280.629 239.187 281.44C239.997 282.251 240.453 283.35 240.453 284.496V306.334ZM267.041 294.96V252.884C267.043 251.738 267.499 250.641 268.309 249.832C269.119 249.023 270.218 248.568 271.363 248.568C273.945 248.568 275.678 250.749 275.678 254.008V286.222C275.683 287.81 275.969 289.384 276.521 290.872L267.041 294.96ZM293.013 288.022C292.701 288.884 292.121 289.622 291.357 290.128C290.593 290.634 289.686 290.881 288.771 290.832C288.19 290.797 287.624 290.628 287.119 290.337C286.723 289.75 286.193 289.266 285.573 288.925C284.995 288.151 284.675 287.215 284.657 286.249V254.008C284.657 245.792 278.943 239.59 271.363 239.59C267.837 239.593 264.457 240.995 261.964 243.487C259.471 245.979 258.067 249.358 258.062 252.884V315.694C258.085 316.275 257.99 316.855 257.783 317.399C257.577 317.943 257.262 318.44 256.859 318.859C256.456 319.279 255.972 319.613 255.437 319.841C254.901 320.068 254.325 320.186 253.743 320.186C253.161 320.186 252.586 320.068 252.05 319.841C251.515 319.613 251.031 319.279 250.628 318.859C250.224 318.44 249.91 317.943 249.703 317.399C249.497 316.855 249.402 316.275 249.425 315.694V309.271V284.516C249.425 280.99 248.024 277.609 245.531 275.116C243.038 272.623 239.656 271.222 236.131 271.222C232.605 271.222 229.223 272.623 226.73 275.116C224.237 277.609 222.837 280.99 222.837 284.516V299.041C222.837 300.188 222.381 301.287 221.571 302.097C220.76 302.908 219.661 303.363 218.515 303.363C217.368 303.363 216.269 302.908 215.458 302.097C214.648 301.287 214.193 300.188 214.193 299.041V260.397C214.216 259.793 214.117 259.191 213.902 258.627C213.687 258.062 213.361 257.547 212.942 257.111C212.523 256.676 212.02 256.329 211.465 256.093C210.909 255.856 210.311 255.734 209.707 255.734C209.102 255.734 208.505 255.856 207.949 256.093C207.393 256.329 206.89 256.676 206.471 257.111C206.053 257.547 205.726 258.062 205.511 258.627C205.296 259.191 205.197 259.793 205.221 260.397V264.9L166.483 281.505V254.295L314.028 191.063V218.254L302.273 223.292V221.953C302.273 220.763 301.8 219.621 300.958 218.779C300.116 217.937 298.974 217.464 297.784 217.464C296.593 217.464 295.451 217.937 294.609 218.779C293.767 219.621 293.294 220.763 293.294 221.953V284.898C292.83 285.865 292.731 286.967 293.013 288.002V288.022ZM314.028 267.362C314.02 269.567 313.367 271.722 312.15 273.561C310.932 275.4 309.204 276.843 307.177 277.712L302.28 279.813V233.046L314.035 228.008L314.028 267.362Z" fill="#914F4A"/>
<path d="M194.282 50.1283C201.981 49.6555 209.71 50.1409 217.29 51.5734C232.866 48.9909 244.628 41.9926 247.076 34.1179L220.582 38.44C216.896 39.0258 213.178 39.3899 209.449 39.5305C205.306 39.7008 201.177 40.1231 197.085 40.795C195.774 41.0181 194.489 41.2678 193.231 41.5444C192.89 41.8521 192.562 42.1599 192.188 42.461C193.201 44.92 193.904 47.4956 194.282 50.1283Z" fill="#F4366B"/>
<path d="M187.544 34.5728C187.772 34.352 188.013 34.1446 188.213 33.9038C191.405 30.6723 192.803 27.307 192.361 23.9082C191.799 19.5058 188.14 15.0901 182.051 11.4706L180.292 10.4202L167.975 22.8043C175.707 24.2298 182.66 28.4112 187.544 34.5728Z" fill="#F4366B"/>
<path d="M112.879 37.7509C113.175 39.6246 113.824 41.4251 114.792 43.0564C115.033 43.4718 115.297 43.8739 115.582 44.2607C118.775 45.239 121.904 46.4189 124.948 47.7933C126.561 48.5293 128.253 49.1916 129.993 49.8005C131.096 42.7319 134.505 36.2261 139.687 31.2946C132.462 25.0456 119.107 20.6901 104.375 20.1147L110.323 30.5252C111.617 32.7535 112.484 35.2041 112.879 37.7509Z" fill="#F4366B"/>
<path d="M92.5669 61.9571C95.8763 63.4468 99.2937 64.6836 102.79 65.657C104.128 66.0383 105.526 66.3662 106.918 66.6672C110.827 66.082 114.764 65.7046 118.713 65.5365C122.087 65.3992 125.449 65.0619 128.783 64.5263L131.017 64.165C130.524 62.5398 130.164 60.8773 129.94 59.194C126.971 58.3149 124.065 57.2353 121.242 55.9624C117.934 54.465 114.516 53.2214 111.019 52.2425C96.4006 48.1279 78.7377 48.643 65.0088 53.3264L83.0463 58.4714C86.3026 59.3935 89.4851 60.5587 92.5669 61.9571Z" fill="#F4366B"/>
<path d="M134.977 72.615L130.227 73.3844C126.542 73.9795 122.824 74.3526 119.094 74.5017C114.953 74.6749 110.827 75.0972 106.737 75.7662C91.1477 78.3487 79.3657 85.3537 76.917 93.2284L103.411 88.9063C107.097 88.3155 110.815 87.9424 114.544 87.789C118.687 87.6187 122.816 87.1964 126.908 86.5245C128.246 86.3104 129.504 86.0562 130.762 85.7752C132.869 83.8571 135.147 82.135 137.566 80.6302C138.53 80.028 139.42 79.4058 140.242 78.7769C138.243 76.9449 136.475 74.8756 134.977 72.615Z" fill="#F4366B"/>
<path d="M131.611 103.391C132.173 107.794 135.833 112.209 141.921 115.835L143.681 116.879L157.176 103.338C159.26 101.286 161.569 99.4772 164.06 97.9451C166.441 96.4858 168.643 94.7548 170.624 92.7868L170.871 92.5124C170.198 90.8499 169.722 89.1141 169.453 87.3407C169.413 87.0463 169.352 86.7586 169.285 86.4709C162.1 88.1022 154.573 87.2386 147.943 84.0222C146.19 85.5918 144.303 87.0044 142.303 88.2439C139.926 89.7027 137.726 91.4314 135.746 93.3956C132.555 96.6271 131.17 99.9924 131.611 103.391Z" fill="#F4366B"/>
<path d="M187.156 75.4851C184.524 78.6552 181.32 81.3017 177.709 83.2862C177.982 84.185 178.192 85.1015 178.338 86.0293C178.635 87.9007 179.284 89.6988 180.251 91.3282C185.289 100.026 201.393 106.502 219.591 107.211L213.644 96.801C212.356 94.5687 211.496 92.116 211.108 89.5686C210.813 87.6967 210.164 85.8982 209.194 84.2697C208.954 83.8616 208.686 83.4602 208.405 83.0587C205.211 82.0815 202.082 80.9016 199.038 79.5262C196.359 78.3143 193.593 77.3057 190.762 76.5088L187.156 75.4851Z" fill="#F4366B"/>
<path d="M212.968 75.0637C227.587 79.1784 245.25 78.6632 258.979 73.9799L240.941 68.855C237.68 67.9324 234.493 66.7649 231.407 65.3625C228.097 63.8697 224.677 62.6328 221.177 61.6627C212.431 59.3042 203.351 58.429 194.315 59.0735C193.932 61.9846 193.153 64.8298 192 67.5303L193.191 67.8715C196.453 68.7948 199.642 69.9599 202.732 71.3572C206.043 72.8549 209.465 74.094 212.968 75.0637Z" fill="#F4366B"/>
<path d="M147.863 73.4646C152.384 74.3787 157.062 74.1597 161.479 72.8272C165.895 71.4947 169.913 69.0901 173.175 65.8278C176.437 62.5654 178.84 58.5468 180.172 54.13C181.504 49.7132 181.722 45.0355 180.807 40.514C178.775 37.8453 176.195 35.6422 173.242 34.0529C170.288 32.4635 167.028 31.5245 163.682 31.299C160.335 31.0736 156.979 31.5668 153.839 32.7456C150.698 33.9244 147.847 35.7615 145.475 38.1336C143.104 40.5056 141.267 43.3576 140.089 46.4981C138.911 49.6386 138.418 52.9948 138.644 56.3414C138.87 59.688 139.81 62.9474 141.4 65.9008C142.99 68.8542 145.194 71.4332 147.863 73.4646Z" fill="white"/>
<path d="M153.356 74.0199C151.511 74.0164 149.671 73.8304 147.863 73.4646C152.388 76.9233 158.014 78.6215 163.697 78.2435C169.38 77.8656 174.732 75.4371 178.759 71.4096C182.785 67.3821 185.213 62.0295 185.589 56.3468C185.966 50.6641 184.267 45.0379 180.807 40.5139C181.629 44.5759 181.538 48.7699 180.54 52.7924C179.542 56.8149 177.663 60.5652 175.037 63.772C172.412 66.9788 169.107 69.5618 165.36 71.3342C161.614 73.1065 157.521 74.0239 153.376 74.0199H153.356Z" fill="#EBE2E3"/>
</svg>
