<svg width="54" height="61" viewBox="0 0 54 61" fill="none" xmlns="http://www.w3.org/2000/svg">
<path d="M42.4305 31.7881C38.9065 30.2575 34.9939 29.8603 31.2342 30.6516C31.4832 28.4457 32.1821 26.3144 33.2877 24.3895C34.3933 22.4645 35.8821 20.7869 37.662 19.4603C39.4511 18.1384 41.5042 17.2177 43.6812 16.761C45.8583 16.3042 48.1083 16.3221 50.2778 16.8134C48.5098 23.9282 41.5667 26.4842 37.0609 26.5044C38.3541 23.7388 42.3648 19.8695 47.4869 18.4223C43.9762 17.9752 40.2711 19.8669 38.1722 21.5213C36.0734 23.1756 34.6716 25.287 34.2903 27.3834L34.068 28.6083L35.3005 28.7775C37.7302 29.1135 41.6526 28.7422 45.3755 26.6863C48.2547 25.0976 51.8917 21.9759 52.8489 16.1315L53.0207 15.0909L52.0104 14.7954C49.3501 13.9979 46.5406 13.831 43.8045 14.308C41.0685 14.7849 38.4812 15.8927 36.2477 17.5433C33.1592 19.8288 30.8588 23.019 29.6657 26.6711C27.8806 25.3524 26.3848 23.6816 25.271 21.7619C24.1571 19.8422 23.4488 17.7144 23.1899 15.5102C22.939 13.2999 23.1676 11.0615 23.8602 8.94754C24.5527 6.83362 25.693 4.8939 27.2032 3.26061C32.4844 8.3448 31.2241 15.6364 28.9889 19.5512C27.2386 17.0483 25.8949 11.6433 27.2032 6.48085C25.0589 9.29698 24.8442 13.4542 25.2281 16.0986C25.612 18.743 26.7309 21.006 28.365 22.3901L29.3147 23.1958L30.0724 22.2133C31.5878 20.2761 33.2168 16.6922 33.3002 12.4415C33.3633 9.15807 32.4768 4.44516 27.8952 0.692L27.0769 0.0302734L26.3192 0.760194C24.2988 2.66451 22.7492 5.01271 21.7927 7.61913C20.8362 10.2256 20.4992 13.0187 20.8082 15.7779C21.2437 19.5971 22.8584 23.1856 25.4277 26.0448C23.3931 26.9317 21.1984 27.392 18.9789 27.3972C16.7595 27.4024 14.5626 26.9524 12.524 26.0751C10.4849 25.1871 8.66101 23.8701 7.17656 22.214C5.69211 20.5578 4.5819 18.6012 3.9215 16.4775C10.9656 14.4443 16.6534 19.185 18.924 23.0771C15.8806 23.3297 10.5287 21.8142 6.71238 18.0889C8.07877 21.3546 11.5693 23.6176 14.052 24.6076C16.5347 25.5977 19.0554 25.7594 21.0709 25.037L22.2428 24.6177L21.773 23.466C20.8486 21.1929 18.5654 17.9828 14.9234 15.7855C12.1072 14.0857 7.58626 12.5021 2.0424 14.5908L1.05233 14.9621L1.3049 15.99C1.94515 18.6925 3.20573 21.2088 4.98685 23.3398C6.76798 25.4707 9.02072 27.1578 11.5667 28.2673C15.0913 29.796 19.0036 30.1923 22.7631 29.4014C22.5133 31.607 21.8141 33.7381 20.7086 35.663C19.603 37.5878 18.1146 39.2656 16.3352 40.5927C14.5464 41.9151 12.4934 42.8362 10.3162 43.293C8.13903 43.7498 5.88894 43.7316 3.71945 43.2396C5.48742 36.1247 12.4305 33.5687 16.9338 33.5485C15.6432 36.3268 11.6299 40.1835 6.5078 41.6307C10.021 42.0803 13.7262 40.1885 15.825 38.5317C17.9239 36.8749 19.3231 34.776 19.707 32.6696L19.9267 31.4447L18.6967 31.2754C16.267 30.9395 12.3446 31.3133 8.62179 33.3667C5.73999 34.9553 2.10554 38.0771 1.14578 43.9215L0.976562 44.9646L1.98683 45.2601C4.64728 46.0566 7.45659 46.223 10.1925 45.7461C12.9283 45.2691 15.5156 44.1619 17.7496 42.5122C19.9971 40.8463 21.8388 38.6938 23.1369 36.2157C23.617 35.3017 24.0208 34.3497 24.3441 33.3692C26.1289 34.6884 27.6243 36.3593 28.7381 38.2789C29.8519 40.1985 30.5605 42.3261 30.82 44.5302C31.0706 46.7407 30.8416 48.9792 30.1485 51.0931C29.4555 53.207 28.3148 55.1467 26.8041 56.7797C21.5229 51.6981 22.7858 44.4039 25.0185 40.4916C26.7688 42.9921 28.115 48.397 26.8041 53.5595C28.951 50.7434 29.1657 46.5886 28.7792 43.9417C28.3928 41.2948 27.2739 39.0394 25.6423 37.6629L24.6927 36.8597L23.935 37.8397C22.4196 39.7769 20.793 43.3608 20.7097 47.6115C20.6465 50.8949 21.5331 55.6103 26.1146 59.361L26.9304 60.0303L27.6881 59.3004C29.7091 57.3938 31.258 55.0426 32.2119 52.4332C33.1659 49.8238 33.4987 47.028 33.184 44.2675C32.8654 41.4889 31.9225 38.8183 30.426 36.4556C29.877 35.5876 29.256 34.7672 28.5696 34.0032C30.6047 33.1166 32.8 32.6567 35.0198 32.6519C37.2397 32.6471 39.4369 33.0976 41.4758 33.9754C43.5148 34.8631 45.3385 36.18 46.8226 37.8362C48.3066 39.4924 49.4162 41.4491 50.0757 43.573C43.0342 45.5935 37.3463 40.8654 35.0757 36.9759C38.1192 36.7107 43.4711 38.2387 47.2874 41.9641C45.921 38.6984 42.428 36.4329 39.9452 35.4453C37.4625 34.4578 34.952 34.2936 32.9314 35.016L31.7595 35.4377L32.2293 36.5895C33.1537 38.8626 35.4369 42.0702 39.0764 44.2675C41.8951 45.9673 46.4135 47.5509 51.9574 45.4647L52.9449 45.0909L52.6923 44.0629C52.0519 41.3608 50.7912 38.8449 49.0101 36.7144C47.229 34.5839 44.9763 32.8973 42.4305 31.7881ZM25.2231 28.6967C25.919 28.4446 26.5996 28.1519 27.2613 27.8203C27.8231 28.2978 28.4136 28.7406 29.0293 29.1463C28.9005 29.8746 28.8162 30.6101 28.7767 31.3487C28.0808 31.6008 27.4002 31.8934 26.7385 32.2251C26.1762 31.7482 25.5858 31.3054 24.9705 30.8991C25.0983 30.1706 25.1826 29.4352 25.2231 28.6967Z" fill="#F67280"/>
</svg>
