<svg width="133" height="31" viewBox="0 0 133 31" fill="none" xmlns="http://www.w3.org/2000/svg">
<g clip-path="url(#clip0_9_13753)">
<path d="M25.4929 29.3219C25.0189 28.8073 24.7007 28.2317 24.5381 27.5953C24.3756 26.9588 24.2944 26.1733 24.2944 25.2389C24.2944 24.291 24.4434 23.0587 24.7413 21.542C25.134 19.5513 25.845 16.9783 26.8741 13.823C26.3596 13.9043 25.6351 14.0329 24.7007 14.209C23.7798 14.3715 23.1298 14.4798 22.7506 14.534C21.5995 19.8425 19.5276 23.9592 16.5348 26.8843C15.5056 27.9 14.2801 28.7192 12.8582 29.3422C11.4498 29.9651 9.90599 30.2766 8.22678 30.2766C6.54757 30.2766 5.12566 29.7891 3.96104 28.814C2.79643 27.839 2.21412 26.5322 2.21412 24.8936C2.21412 23.255 2.87768 21.5758 4.2048 19.856C2.01099 17.8111 0.914087 15.3939 0.914087 12.6042C0.914087 10.9386 1.21878 9.41509 1.82817 8.0338C2.45111 6.65252 3.2704 5.49467 4.28605 4.56028C5.31524 3.62588 6.50694 2.83367 7.86115 2.18365C10.4341 0.951326 13.2915 0.335163 16.4332 0.335163H27.4632C27.707 0.335163 27.883 0.450271 27.9914 0.680485C27.9778 0.775279 27.9304 0.863302 27.8492 0.944555C27.7815 1.02581 27.7341 1.10029 27.707 1.168C26.0007 3.21284 24.6736 6.10407 23.7256 9.84166C23.509 10.6677 23.2517 11.7579 22.9537 13.1121L27.4226 12.3605C29.6164 7.6614 32.0133 4.56028 34.6134 3.05711C35.4666 2.55606 36.2791 2.30553 37.051 2.30553C37.8229 2.30553 38.4661 2.50189 38.9807 2.89461C39.5089 3.27378 39.7729 3.88994 39.7729 4.74309C39.7729 5.5827 39.4682 6.47647 38.8588 7.42441C38.263 8.37236 37.4979 9.20519 36.5635 9.92292C34.6947 11.3448 32.7852 12.3808 30.8352 13.0308C30.1987 14.4934 29.5216 16.6804 28.8039 19.5919C28.0997 22.4899 27.7476 24.5618 27.7476 25.8077C27.7476 27.0536 28.0117 27.6765 28.5398 27.6765C29.3117 27.6765 30.3341 26.7895 31.6071 25.0155L32.7446 26.0921C32.0269 27.1619 31.1941 28.0963 30.2461 28.8953C29.3117 29.6943 28.4044 30.0938 27.5242 30.0938C26.6575 30.0938 25.9804 29.8365 25.4929 29.3219ZM3.29071 13.5183C3.29071 15.5632 3.92719 17.3575 5.20014 18.9013C6.89289 17.3439 8.97836 16.1252 11.4566 15.2449C13.9347 14.3647 16.4536 13.823 19.013 13.6199C20.286 7.79682 21.7688 3.86963 23.4616 1.83833C22.4324 1.67582 21.2068 1.59457 19.7849 1.59457C18.363 1.59457 17.0426 1.68937 15.8239 1.87895C14.6051 2.055 13.3795 2.33261 12.1472 2.71179C10.9149 3.09097 9.77057 3.60556 8.71429 4.25558C7.67156 4.9056 6.74393 5.65718 5.93141 6.51033C4.17094 8.31142 3.29071 10.6474 3.29071 13.5183ZM5.32202 20.6482C4.31991 22.043 3.81885 23.3634 3.81885 24.6092C3.81885 25.8416 4.1574 26.8708 4.8345 27.6968C5.52515 28.5229 6.43246 28.9359 7.55645 28.9359C8.69398 28.9359 9.73672 28.7328 10.6847 28.3265C11.6326 27.9067 12.4722 27.3244 13.2035 26.5796C13.9347 25.8213 14.5983 25.002 15.1942 24.1217C15.79 23.228 16.3181 22.2326 16.7786 21.1357C17.6182 19.145 18.2953 17.1205 18.8099 15.0621C13.1087 15.5361 8.93097 17.0799 6.27673 19.6935C7.41426 20.3029 8.45699 20.6076 9.40494 20.6076C10.3664 20.6076 11.0164 20.594 11.355 20.5669L11.8222 21.6435C11.118 21.7248 10.3935 21.7654 9.64869 21.7654C8.06428 21.7654 6.62205 21.393 5.32202 20.6482ZM37.4776 3.58525C36.9088 3.58525 36.2926 3.88317 35.6291 4.47902C34.9791 5.07487 34.3697 5.82645 33.8009 6.73377C32.8394 8.30465 32.054 9.82135 31.4446 11.2839C32.8123 10.7693 34.0379 10.0787 35.1212 9.21196C37.1661 7.57338 38.1885 6.08375 38.1885 4.74309C38.1885 3.9712 37.9515 3.58525 37.4776 3.58525ZM37.9041 25.5843C37.9854 27.1416 39.0349 27.9203 41.0527 27.9203C41.7975 27.9203 42.5694 27.7104 43.3683 27.2906C44.1809 26.8572 44.8376 26.3494 45.3387 25.7671L46.2122 26.3359C45.0882 28.2182 43.2939 29.3693 40.8292 29.7891C40.2875 29.8703 39.7662 29.9109 39.2651 29.9109C37.8026 29.9109 36.5838 29.4302 35.6088 28.4687C34.6337 27.4937 34.1462 26.3088 34.1462 24.9139C34.1462 23.5191 34.5728 22.2326 35.4259 21.0545C36.2791 19.8628 37.3421 18.9419 38.6151 18.2919C39.9016 17.6419 41.1678 17.3169 42.4136 17.3169C43.6595 17.3169 44.7361 17.6012 45.6434 18.17C46.5643 18.7388 47.0315 19.5039 47.045 20.4654C47.0721 21.4269 46.7945 22.2597 46.2122 22.9639C45.6299 23.6545 44.8918 24.1827 43.998 24.5483C42.224 25.266 40.4839 25.6249 38.7776 25.6249L37.9041 25.5843ZM37.7823 24.4671C39.2854 24.4129 40.4907 24.1759 41.398 23.7561C42.3188 23.3228 42.9553 22.8352 43.3074 22.2936C43.673 21.7383 43.8558 21.1628 43.8558 20.5669C43.8558 19.9576 43.7001 19.5107 43.3886 19.2263C43.0772 18.9284 42.7454 18.7794 42.3933 18.7794C41.5266 18.7794 40.7276 19.0841 39.9964 19.6935C39.2786 20.2893 38.7302 21.0206 38.351 21.8873C37.9718 22.7404 37.7823 23.6004 37.7823 24.4671ZM59.6594 19.9779C59.1448 19.9779 58.5354 20.3097 57.8312 20.9732C57.127 21.6232 56.4432 22.4222 55.7796 23.3701C54.7233 24.8869 53.6467 26.6338 52.5498 28.6109L52.0014 29.5859H49.1372C49.1372 29.5859 49.3471 28.9495 49.7669 27.6765C50.9451 24.1556 51.5342 22.0701 51.5342 21.4201C51.5342 20.7565 51.4258 20.4248 51.2092 20.4248C50.8164 20.4248 50.3492 20.892 49.8076 21.8264C49.6857 22.043 49.5841 22.2191 49.5029 22.3545C49.4216 22.4764 49.3268 22.6321 49.2185 22.8217C49.1237 22.9977 49.0628 23.1061 49.0357 23.1467L47.6747 22.3545C48.731 20.6347 49.6992 19.3685 50.5795 18.556C51.4597 17.7299 52.3602 17.3169 53.2811 17.3169C53.7009 17.3169 54.0598 17.4929 54.3577 17.845C54.6692 18.1971 54.8249 18.6169 54.8249 19.1044C54.8249 19.5784 54.7978 20.005 54.7436 20.3841C54.6895 20.7498 54.6285 21.0883 54.5608 21.3998C54.4931 21.7112 54.3983 22.0837 54.2764 22.517C54.1546 22.9503 54.053 23.2821 53.9717 23.5123C53.904 23.7426 53.8092 24.054 53.6874 24.4467C53.5655 24.8395 53.491 25.0697 53.4639 25.1374C53.7077 24.6499 54.1207 23.9321 54.703 22.9842C55.2853 22.0363 55.6645 21.4404 55.8405 21.1967C56.0166 20.9529 56.2603 20.6279 56.5718 20.2216C56.8833 19.8154 57.1541 19.5039 57.3843 19.2872C57.6281 19.057 57.9125 18.7997 58.2375 18.5153C58.576 18.2174 58.8943 17.994 59.1922 17.845C59.9505 17.4929 60.6818 17.3169 61.386 17.3169C62.0902 17.3169 62.6522 17.5268 63.072 17.9466C63.5053 18.3528 63.722 18.8336 63.722 19.3888C63.722 19.9305 63.546 20.4112 63.1939 20.831C62.8553 21.2373 62.4558 21.4404 61.9954 21.4404C61.5485 21.4404 61.1964 21.3659 60.9391 21.217C60.6818 21.0545 60.5058 20.8852 60.411 20.7091C60.1266 20.2216 59.8761 19.9779 59.6594 19.9779ZM75.8489 27.2093C75.1853 28.0083 74.3051 28.6583 73.2082 29.1594C72.1113 29.6604 70.8451 29.9109 69.4097 29.9109C67.9742 29.9109 66.7554 29.4844 65.7533 28.6312C64.7647 27.7781 64.2705 26.6947 64.2705 25.3811C64.2705 25.2322 64.2975 24.9546 64.3517 24.5483C64.9069 20.8242 65.9158 16.7481 67.3783 12.3199C68.8409 7.87807 70.4118 4.56705 72.091 2.38678H75.5442C74.5285 3.52431 73.3098 5.94156 71.8878 9.63853C70.4795 13.3355 69.3419 16.9783 68.4753 20.5669C70.1138 18.4002 71.9556 17.3169 74.0004 17.3169C75.2733 17.3169 76.2484 17.7502 76.9255 18.6169C77.6161 19.47 77.9614 20.4518 77.9614 21.5623C77.9614 22.6727 77.7786 23.6952 77.413 24.6296C77.0474 25.5504 76.526 26.4103 75.8489 27.2093ZM67.8455 24.5483C67.7372 25.1171 67.683 25.6723 67.683 26.214C67.683 26.7421 67.8794 27.2838 68.2721 27.839C68.6648 28.3807 69.2675 28.6515 70.08 28.6515C70.8925 28.6515 71.6373 28.2994 72.3144 27.5953C73.6144 26.2275 74.2645 24.4197 74.2645 22.1717C74.2645 21.2508 74.1087 20.4992 73.7973 19.9169C73.4858 19.3211 73.0051 19.0232 72.355 19.0232C71.705 19.0232 70.8925 19.5445 69.9175 20.5873C68.956 21.63 68.2653 22.9503 67.8455 24.5483ZM90.8196 17.7637H93.9884L92.3837 23.8373C92.1264 24.6905 91.9977 25.4692 91.9977 26.1733C91.9977 26.864 92.1196 27.2093 92.3634 27.2093C92.6071 27.2093 92.9389 26.9994 93.3587 26.5796C93.7921 26.1463 94.1577 25.7129 94.4556 25.2796L94.9228 24.6296L95.7963 25.4421C95.3494 26.3088 94.7806 27.101 94.09 27.8187C92.7493 29.2135 91.5847 29.9109 90.5961 29.9109C89.4315 29.9109 88.8492 29.0104 88.8492 27.2093C88.8492 26.9114 88.8628 26.6879 88.8899 26.539C88.6867 27.2296 88.3008 27.839 87.732 28.3672C86.6486 29.3963 85.4231 29.9109 84.0553 29.9109C82.7011 29.9109 81.611 29.4505 80.7849 28.5297C79.9724 27.5953 79.5662 26.4306 79.5662 25.0358C79.5662 22.8691 80.2704 21.0409 81.6787 19.5513C83.0871 18.0617 84.7392 17.3169 86.6351 17.3169C87.583 17.3169 88.3685 17.5809 88.9914 18.1091C89.6143 18.6237 90.0206 19.3008 90.2102 20.1404L90.8196 17.7637ZM87.4273 19.0638C86.6419 19.0638 85.9038 19.3956 85.2132 20.0591C84.5361 20.7091 84.0147 21.5013 83.6491 22.4357C83.2835 23.3566 83.1006 24.2572 83.1006 25.1374C83.1006 26.0176 83.2902 26.7286 83.6694 27.2703C84.0621 27.8119 84.658 28.0828 85.4569 28.0828C86.2695 28.0828 87.0007 27.7171 87.6508 26.9859C88.8831 25.5775 89.4992 23.9051 89.4992 21.9685C89.4992 20.032 88.8086 19.0638 87.4273 19.0638ZM104.45 2.5696H107.74C107.158 3.57171 106.264 5.79937 105.059 9.25259C103.854 12.6923 102.75 16.159 101.748 19.6529C100.759 23.1332 100.265 25.266 100.265 26.0515C100.265 26.8234 100.36 27.2093 100.55 27.2093C101.118 27.2093 102.005 26.3494 103.211 24.6296L104.064 25.4421C103.468 26.4713 102.825 27.338 102.134 28.0421C100.915 29.288 99.9266 29.9109 99.1682 29.9109C97.787 29.9109 97.0963 29.0781 97.0963 27.4124C97.0963 24.9343 97.9156 21.0274 99.5542 15.6918C101.206 10.3563 102.838 5.98219 104.45 2.5696ZM108.756 29.9109C108.187 29.9109 107.74 29.7349 107.415 29.3828C107.09 29.0307 106.928 28.55 106.928 27.9406C106.928 27.3176 107.084 26.478 107.395 25.4218C107.72 24.3519 108.038 23.3837 108.35 22.517C108.675 21.6503 108.837 21.0748 108.837 20.7904C108.837 20.4925 108.742 20.3435 108.553 20.3435C108.079 20.3435 107.314 21.2779 106.257 23.1467L104.897 22.3545C106.887 18.9961 108.715 17.3169 110.381 17.3169C111.519 17.3169 112.087 18.0346 112.087 19.47C112.087 19.8898 111.952 20.5602 111.681 21.481L110.219 25.6655C110.07 26.0582 109.995 26.4171 109.995 26.7421C109.995 27.0536 110.117 27.2093 110.361 27.2093C110.821 27.2093 111.668 26.3562 112.9 24.6499L113.753 25.4421C113.022 26.7963 112.148 27.8796 111.133 28.6922C110.131 29.5047 109.338 29.9109 108.756 29.9109ZM114.545 11.3245C114.545 11.8662 114.362 12.3605 113.997 12.8074C113.631 13.2543 113.137 13.4777 112.514 13.4777C111.891 13.4777 111.424 13.2949 111.112 12.9292C110.801 12.5501 110.645 12.0761 110.645 11.5073C110.645 10.9386 110.835 10.4375 111.214 10.0042C111.607 9.55728 112.108 9.33384 112.717 9.33384C113.326 9.33384 113.78 9.5302 114.078 9.92292C114.389 10.3021 114.545 10.7693 114.545 11.3245ZM126.205 17.7637H129.374L127.769 23.8373C127.512 24.6905 127.383 25.4692 127.383 26.1733C127.383 26.864 127.505 27.2093 127.749 27.2093C127.992 27.2093 128.324 26.9994 128.744 26.5796C129.177 26.1463 129.543 25.7129 129.841 25.2796L130.308 24.6296L131.182 25.4421C130.735 26.3088 130.166 27.101 129.475 27.8187C128.135 29.2135 126.97 29.9109 125.981 29.9109C124.817 29.9109 124.235 29.0104 124.235 27.2093C124.235 26.9114 124.248 26.6879 124.275 26.539C124.072 27.2296 123.686 27.839 123.117 28.3672C122.034 29.3963 120.808 29.9109 119.441 29.9109C118.086 29.9109 116.996 29.4505 116.17 28.5297C115.358 27.5953 114.951 26.4306 114.951 25.0358C114.951 22.8691 115.656 21.0409 117.064 19.5513C118.472 18.0617 120.125 17.3169 122.02 17.3169C122.968 17.3169 123.754 17.5809 124.377 18.1091C125 18.6237 125.406 19.3008 125.596 20.1404L126.205 17.7637ZM122.813 19.0638C122.027 19.0638 121.289 19.3956 120.599 20.0591C119.921 20.7091 119.4 21.5013 119.034 22.4357C118.669 23.3566 118.486 24.2572 118.486 25.1374C118.486 26.0176 118.676 26.7286 119.055 27.2703C119.447 27.8119 120.043 28.0828 120.842 28.0828C121.655 28.0828 122.386 27.7171 123.036 26.9859C124.268 25.5775 124.885 23.9051 124.885 21.9685C124.885 20.032 124.194 19.0638 122.813 19.0638Z" fill="white"/>
</g>
<defs>
<clipPath id="clip0_9_13753">
<rect width="133" height="31" fill="white"/>
</clipPath>
</defs>
</svg>
