<svg width="49" height="85" viewBox="0 0 49 85" fill="none" xmlns="http://www.w3.org/2000/svg">
<g clip-path="url(#clip0_3472_63046)">
<path d="M25.7123 14.8086C35.4574 23.8863 38.66 39.2449 35.4574 50.7983C32.2548 62.3517 20.0391 74.7304 0.0456378 77.3436" stroke="#FFCBC4" stroke-miterlimit="10"/>
<path d="M11.4836 0C18.3921 0 26.1241 7.79396 26.0326 15.1295C18.3464 15.4045 11.9411 5.40992 11.4836 0Z" fill="#FFCBC4"/>
<path d="M34.1308 27.7369C39.7125 24.711 39.1635 15.1749 35.8236 10.04C31.6145 13.0659 31.9805 22.8313 32.8955 24.8486" fill="#FFCBC4"/>
<path d="M33.2155 25.5365C31.2482 22.2813 25.2548 19.3471 17.5685 20.7225C20.7711 26.9119 29.2809 28.6082 34.0391 27.5079" fill="#FFCBC4"/>
<path d="M36.5098 38.1447C37.0131 32.0929 42.5033 26.4079 45.4772 24.3906C47.0327 31.8637 41.9085 38.9699 36.5556 39.245" fill="#FFCBC4"/>
<path d="M36.4183 37.6406C34.3137 32.7809 26.4902 31.8181 22.7843 29.8467C23.9738 35.7609 31.4313 40.2081 36.5098 38.9243" fill="#FFCBC4"/>
<path d="M35.1831 51.5774C35.3203 44.6545 30.6537 43.921 27.268 39.6572C26.9478 45.9382 29.6929 53.0445 34.4968 53.5488" fill="#FFCBC4"/>
<path d="M35.4118 50.7985C37.6993 45.0218 45.0654 45.3886 49 43.1421C47.4902 49.5148 40.0327 55.3832 34.634 53.2284" fill="#FFCBC4"/>
<path d="M28.1829 63.4984C30.1045 56.713 25.6665 51.945 24.6143 47.7271C21.9149 53.9622 23.1502 63.0857 27.0848 64.6445" fill="#FFCBC4"/>
<path d="M28.3202 63.3605C33.0326 59.7844 40.2614 59.922 45.4771 60.9306C43.4182 64.094 34.3137 69.2289 27.2222 64.5066" fill="#FFCBC4"/>
<path d="M17.8888 71.5666C24.294 69.366 30.6535 71.0623 34.1306 75.2802C28.2287 78.4895 19.9934 76.7932 16.8822 72.1168" fill="#FFCBC4"/>
<path d="M5.9934 76.197C5.85614 80.6442 10.8431 85.779 19.9934 84.8621C16.8823 81.9737 15.6928 76.6096 7.04569 75.9678" fill="#FFCBC4"/>
<path d="M18.1175 71.4299C20.9084 63.0858 15.6012 57.0798 14.4116 52.0825C11.2548 59.2805 11.392 69.8252 17.0195 72.0717" fill="#FFCBC4"/>
<path d="M6.35949 76.106C10.3856 70.7877 8.55557 65.928 9.05884 60.0596C4.34642 61.6642 2.4706 71.8422 5.1242 76.381" fill="#FFCBC4"/>
</g>
<defs>
<clipPath id="clip0_3472_63046">
<rect width="49" height="85" fill="white" transform="matrix(-1 0 0 1 49 0)"/>
</clipPath>
</defs>
</svg>
